<svg width="80" height="80" viewBox="0 0 80 80" fill="none" xmlns="http://www.w3.org/2000/svg">
<mask id="path-1-inside-1_746_1661" fill="white">
<path d="M63.9404 20.0903V6.06146C63.9376 4.45473 63.297 2.9146 62.1591 1.77847C61.0211 0.642329 59.4786 0.00280981 57.8692 0L6.0676 0C4.45862 0.00281224 2.9164 0.642445 1.77902 1.77868C0.641628 2.91492 0.00187608 4.45505 0 6.06146L0 73.9385C0.00187608 75.5449 0.641628 77.0851 1.77902 78.2213C2.9164 79.3576 4.45862 79.9972 6.0676 80H57.8728C59.4821 79.9972 61.0247 79.3577 62.1626 78.2215C63.3006 77.0854 63.9411 75.5453 63.9439 73.9385V69.6023C68.7266 67.4614 72.7871 63.9851 75.6359 59.5924C78.4847 55.1998 80.0002 50.0783 79.9999 44.8452C79.9995 39.6121 78.4832 34.4908 75.6338 30.0986C72.7844 25.7063 68.7234 22.2306 63.9404 20.0903ZM70.0577 27.0623L60.055 36.5176C58.4044 35.1218 56.3749 34.2486 54.2251 34.0094V20.2639C60.1516 20.5476 65.7752 22.9623 70.0577 27.0623ZM43.488 50.1745L32.2895 58.195C29.9803 54.5555 28.6632 50.3768 28.4688 46.0729C28.2744 41.7689 29.2093 37.4888 31.1811 33.6565C33.1528 29.8242 36.0929 26.5726 39.7103 24.2235C43.3278 21.8745 47.497 20.5096 51.8052 20.2639V34.0094C50.0232 34.2272 48.3216 34.8771 46.849 35.9026C45.3765 36.928 44.1777 38.2977 43.3574 39.8921C42.537 41.4865 42.12 43.2572 42.1428 45.0495C42.1656 46.8418 42.6274 48.6013 43.488 50.1745ZM53.0116 36.3582C55.1706 36.4975 57.1955 37.452 58.6751 39.0279C60.1547 40.6038 60.9781 42.6828 60.9781 44.8428C60.9781 47.0028 60.1547 49.0818 58.6751 50.6577C57.1955 52.2335 55.1706 53.1881 53.0116 53.3274C50.8578 53.1816 48.8397 52.2245 47.3658 50.6497C45.8918 49.0749 45.0719 46.9999 45.0719 44.8446C45.0719 42.6892 45.8918 40.6143 47.3658 39.0395C48.8397 37.4647 50.8578 36.5075 53.0116 36.3617V36.3582ZM16.9964 2.42317H46.944V6.06146C46.9431 6.53972 46.8478 7.0131 46.6637 7.4546C46.4795 7.89609 46.21 8.29704 45.8706 8.63456C45.5313 8.97208 45.1286 9.23955 44.6857 9.42171C44.2428 9.60387 43.7683 9.69715 43.2893 9.69622H20.6369C19.6717 9.69528 18.7462 9.31203 18.0637 8.63059C17.3812 7.94914 16.9973 7.02517 16.9964 6.06146V2.42317ZM61.5098 73.9385C61.5107 74.9038 61.1278 75.8299 60.4452 76.5135C59.7626 77.197 58.8361 77.582 57.8692 77.5839H6.0676C5.10079 77.582 4.17428 77.197 3.49165 76.5135C2.80901 75.8299 2.4261 74.9038 2.42704 73.9385V6.06146C2.42798 5.09743 2.81172 4.17309 3.49415 3.49109C4.17659 2.80908 5.10202 2.42504 6.0676 2.42317H14.5835V6.06146C14.5863 7.66788 15.227 9.20763 16.365 10.3432C17.5031 11.4788 19.0457 12.1175 20.6547 12.1194H43.2893C44.8979 12.1175 46.4402 11.4787 47.5776 10.343C48.7151 9.20732 49.355 7.66755 49.3569 6.06146V2.42317H57.8728C58.8384 2.42504 59.7638 2.80908 60.4462 3.49109C61.1287 4.17309 61.5124 5.09743 61.5134 6.06146V19.1692C57.4407 17.8213 53.1057 17.458 48.865 18.1092C44.6243 18.7605 40.599 20.4076 37.1204 22.9152C33.6417 25.4229 30.8091 28.7192 28.8555 32.5332C26.902 36.3471 25.8833 40.5697 25.8833 44.8534C25.8833 49.1372 26.902 53.3597 28.8555 57.1737C30.8091 60.9876 33.6417 64.284 37.1204 66.7916C40.599 69.2992 44.6243 70.9464 48.865 71.5976C53.1057 72.2489 57.4407 71.8856 61.5134 70.5376L61.5098 73.9385ZM52.9939 69.4961C49.2831 69.4907 45.6215 68.6487 42.2822 67.033C38.9429 65.4172 36.0123 63.0694 33.7089 60.1647L44.9144 52.1406C46.72 54.1182 49.1877 55.3681 51.8525 55.6545C54.5173 55.941 57.195 55.2444 59.3808 53.6959L68.6277 63.9199C64.2266 67.5288 58.7068 69.4998 53.0116 69.4961H52.9939ZM70.409 62.2974L61.1798 52.0769C62.8388 50.1891 63.7977 47.7895 63.8959 45.2801C63.9941 42.7706 63.2256 40.3037 61.7192 38.2924L71.7289 28.8265C75.7344 33.5616 77.8217 39.6209 77.5807 45.8141C77.3398 52.0074 74.788 57.8868 70.4267 62.2974H70.409ZM21.0414 22.2195C21.0424 21.8978 21.171 21.5896 21.3992 21.3625C21.6273 21.1354 21.9363 21.0079 22.2585 21.0079H30.3522C30.674 21.0079 30.9827 21.1355 31.2103 21.3627C31.4378 21.59 31.5657 21.8981 31.5657 22.2195C31.5657 22.5408 31.4378 22.849 31.2103 23.0762C30.9827 23.3034 30.674 23.431 30.3522 23.431H22.2585C21.9363 23.4311 21.6273 23.3035 21.3992 23.0764C21.171 22.8493 21.0424 22.5411 21.0414 22.2195ZM8.09368 22.2195C8.09368 21.8981 8.22153 21.59 8.44911 21.3627C8.67669 21.1355 8.98535 21.0079 9.30719 21.0079H15.7828C16.1047 21.0079 16.4134 21.1355 16.6409 21.3627C16.8685 21.59 16.9964 21.8981 16.9964 22.2195C16.9964 22.5408 16.8685 22.849 16.6409 23.0762C16.4134 23.3034 16.1047 23.431 15.7828 23.431H9.30719C8.98535 23.431 8.67669 23.3034 8.44911 23.0762C8.22153 22.849 8.09368 22.5408 8.09368 22.2195ZM8.09368 31.2745C8.09321 31.1151 8.12425 30.9571 8.18503 30.8097C8.2458 30.6623 8.33512 30.5283 8.44785 30.4155C8.56058 30.3026 8.69452 30.213 8.84198 30.1519C8.98944 30.0908 9.14753 30.0593 9.30719 30.0593H23.8552C24.0146 30.0593 24.1724 30.0907 24.3196 30.1516C24.4669 30.2125 24.6006 30.3017 24.7133 30.4142C24.826 30.5267 24.9154 30.6603 24.9764 30.8073C25.0374 30.9543 25.0688 31.1118 25.0688 31.2709C25.0688 31.43 25.0374 31.5876 24.9764 31.7346C24.9154 31.8816 24.826 32.0151 24.7133 32.1276C24.6006 32.2401 24.4669 32.3294 24.3196 32.3903C24.1724 32.4512 24.0146 32.4825 23.8552 32.4825H9.30719C8.98596 32.4825 8.67784 32.3553 8.45036 32.1289C8.22288 31.9024 8.09461 31.5952 8.09368 31.2745ZM8.09368 40.3224C8.09368 40.001 8.22153 39.6929 8.44911 39.4657C8.67669 39.2384 8.98535 39.1108 9.30719 39.1108H21.3217C21.6436 39.1108 21.9523 39.2384 22.1798 39.4657C22.4074 39.6929 22.5353 40.001 22.5353 40.3224C22.5353 40.6437 22.4074 40.9519 22.1798 41.1791C21.9523 41.4063 21.6436 41.534 21.3217 41.534H9.30719C8.98535 41.534 8.67669 41.4063 8.44911 41.1791C8.22153 40.9519 8.09368 40.6437 8.09368 40.3224ZM8.09368 49.3738C8.09367 49.0522 8.22141 48.7436 8.44889 48.5159C8.67637 48.2881 8.98502 48.1596 9.30719 48.1587H21.3217C21.4869 48.1498 21.6521 48.1746 21.8073 48.2315C21.9625 48.2885 22.1044 48.3764 22.2245 48.49C22.3445 48.6035 22.4401 48.7403 22.5055 48.8919C22.5708 49.0436 22.6045 49.207 22.6045 49.3721C22.6045 49.5372 22.5708 49.7005 22.5055 49.8522C22.4401 50.0038 22.3445 50.1406 22.2245 50.2542C22.1044 50.3677 21.9625 50.4557 21.8073 50.5126C21.6521 50.5696 21.4869 50.5943 21.3217 50.5854H9.30719C8.98535 50.5854 8.67669 50.4578 8.44911 50.2306C8.22153 50.0033 8.09368 49.6952 8.09368 49.3738ZM25.09 58.4217C25.0688 60.2746 22.2266 59.4845 20.6405 59.6369C20.3183 59.6359 20.0096 59.5075 19.7822 59.2797C19.5547 59.0519 19.4269 58.7434 19.427 58.4217C19.4482 56.5689 22.2869 57.359 23.873 57.2102C24.1951 57.2102 24.5042 57.3377 24.7323 57.5648C24.9605 57.7919 25.0891 58.1001 25.09 58.4217ZM8.09368 58.4217C8.09368 58.1004 8.22153 57.7922 8.44911 57.565C8.67669 57.3378 8.98535 57.2102 9.30719 57.2102H14.1648C14.4758 57.2269 14.7685 57.3621 14.9826 57.5878C15.1968 57.8135 15.3162 58.1126 15.3162 58.4235C15.3162 58.7344 15.1968 59.0335 14.9826 59.2592C14.7685 59.4849 14.4758 59.6201 14.1648 59.6369H9.30719C8.98502 59.6359 8.67637 59.5075 8.44889 59.2797C8.22141 59.0519 8.09367 58.7434 8.09368 58.4217ZM31.5799 67.4732C31.5799 67.7945 31.452 68.1027 31.2245 68.3299C30.9969 68.5571 30.6882 68.6848 30.3664 68.6848H9.30719C8.98535 68.6848 8.67669 68.5571 8.44911 68.3299C8.22153 68.1027 8.09368 67.7945 8.09368 67.4732C8.09368 67.1519 8.22153 66.8437 8.44911 66.6165C8.67669 66.3893 8.98535 66.2616 9.30719 66.2616H30.3522C30.5127 66.2598 30.6721 66.2897 30.8209 66.3497C30.9698 66.4098 31.1053 66.4987 31.2194 66.6114C31.3336 66.7241 31.4243 66.8583 31.4862 67.0063C31.548 67.1542 31.5799 67.3129 31.5799 67.4732Z"/>
</mask>
<path d="M63.9404 20.0903V6.06146C63.9376 4.45473 63.297 2.9146 62.1591 1.77847C61.0211 0.642329 59.4786 0.00280981 57.8692 0L6.0676 0C4.45862 0.00281224 2.9164 0.642445 1.77902 1.77868C0.641628 2.91492 0.00187608 4.45505 0 6.06146L0 73.9385C0.00187608 75.5449 0.641628 77.0851 1.77902 78.2213C2.9164 79.3576 4.45862 79.9972 6.0676 80H57.8728C59.4821 79.9972 61.0247 79.3577 62.1626 78.2215C63.3006 77.0854 63.9411 75.5453 63.9439 73.9385V69.6023C68.7266 67.4614 72.7871 63.9851 75.6359 59.5924C78.4847 55.1998 80.0002 50.0783 79.9999 44.8452C79.9995 39.6121 78.4832 34.4908 75.6338 30.0986C72.7844 25.7063 68.7234 22.2306 63.9404 20.0903ZM70.0577 27.0623L60.055 36.5176C58.4044 35.1218 56.3749 34.2486 54.2251 34.0094V20.2639C60.1516 20.5476 65.7752 22.9623 70.0577 27.0623ZM43.488 50.1745L32.2895 58.195C29.9803 54.5555 28.6632 50.3768 28.4688 46.0729C28.2744 41.7689 29.2093 37.4888 31.1811 33.6565C33.1528 29.8242 36.0929 26.5726 39.7103 24.2235C43.3278 21.8745 47.497 20.5096 51.8052 20.2639V34.0094C50.0232 34.2272 48.3216 34.8771 46.849 35.9026C45.3765 36.928 44.1777 38.2977 43.3574 39.8921C42.537 41.4865 42.12 43.2572 42.1428 45.0495C42.1656 46.8418 42.6274 48.6013 43.488 50.1745ZM53.0116 36.3582C55.1706 36.4975 57.1955 37.452 58.6751 39.0279C60.1547 40.6038 60.9781 42.6828 60.9781 44.8428C60.9781 47.0028 60.1547 49.0818 58.6751 50.6577C57.1955 52.2335 55.1706 53.1881 53.0116 53.3274C50.8578 53.1816 48.8397 52.2245 47.3658 50.6497C45.8918 49.0749 45.0719 46.9999 45.0719 44.8446C45.0719 42.6892 45.8918 40.6143 47.3658 39.0395C48.8397 37.4647 50.8578 36.5075 53.0116 36.3617V36.3582ZM16.9964 2.42317H46.944V6.06146C46.9431 6.53972 46.8478 7.0131 46.6637 7.4546C46.4795 7.89609 46.21 8.29704 45.8706 8.63456C45.5313 8.97208 45.1286 9.23955 44.6857 9.42171C44.2428 9.60387 43.7683 9.69715 43.2893 9.69622H20.6369C19.6717 9.69528 18.7462 9.31203 18.0637 8.63059C17.3812 7.94914 16.9973 7.02517 16.9964 6.06146V2.42317ZM61.5098 73.9385C61.5107 74.9038 61.1278 75.8299 60.4452 76.5135C59.7626 77.197 58.8361 77.582 57.8692 77.5839H6.0676C5.10079 77.582 4.17428 77.197 3.49165 76.5135C2.80901 75.8299 2.4261 74.9038 2.42704 73.9385V6.06146C2.42798 5.09743 2.81172 4.17309 3.49415 3.49109C4.17659 2.80908 5.10202 2.42504 6.0676 2.42317H14.5835V6.06146C14.5863 7.66788 15.227 9.20763 16.365 10.3432C17.5031 11.4788 19.0457 12.1175 20.6547 12.1194H43.2893C44.8979 12.1175 46.4402 11.4787 47.5776 10.343C48.7151 9.20732 49.355 7.66755 49.3569 6.06146V2.42317H57.8728C58.8384 2.42504 59.7638 2.80908 60.4462 3.49109C61.1287 4.17309 61.5124 5.09743 61.5134 6.06146V19.1692C57.4407 17.8213 53.1057 17.458 48.865 18.1092C44.6243 18.7605 40.599 20.4076 37.1204 22.9152C33.6417 25.4229 30.8091 28.7192 28.8555 32.5332C26.902 36.3471 25.8833 40.5697 25.8833 44.8534C25.8833 49.1372 26.902 53.3597 28.8555 57.1737C30.8091 60.9876 33.6417 64.284 37.1204 66.7916C40.599 69.2992 44.6243 70.9464 48.865 71.5976C53.1057 72.2489 57.4407 71.8856 61.5134 70.5376L61.5098 73.9385ZM52.9939 69.4961C49.2831 69.4907 45.6215 68.6487 42.2822 67.033C38.9429 65.4172 36.0123 63.0694 33.7089 60.1647L44.9144 52.1406C46.72 54.1182 49.1877 55.3681 51.8525 55.6545C54.5173 55.941 57.195 55.2444 59.3808 53.6959L68.6277 63.9199C64.2266 67.5288 58.7068 69.4998 53.0116 69.4961H52.9939ZM70.409 62.2974L61.1798 52.0769C62.8388 50.1891 63.7977 47.7895 63.8959 45.2801C63.9941 42.7706 63.2256 40.3037 61.7192 38.2924L71.7289 28.8265C75.7344 33.5616 77.8217 39.6209 77.5807 45.8141C77.3398 52.0074 74.788 57.8868 70.4267 62.2974H70.409ZM21.0414 22.2195C21.0424 21.8978 21.171 21.5896 21.3992 21.3625C21.6273 21.1354 21.9363 21.0079 22.2585 21.0079H30.3522C30.674 21.0079 30.9827 21.1355 31.2103 21.3627C31.4378 21.59 31.5657 21.8981 31.5657 22.2195C31.5657 22.5408 31.4378 22.849 31.2103 23.0762C30.9827 23.3034 30.674 23.431 30.3522 23.431H22.2585C21.9363 23.4311 21.6273 23.3035 21.3992 23.0764C21.171 22.8493 21.0424 22.5411 21.0414 22.2195ZM8.09368 22.2195C8.09368 21.8981 8.22153 21.59 8.44911 21.3627C8.67669 21.1355 8.98535 21.0079 9.30719 21.0079H15.7828C16.1047 21.0079 16.4134 21.1355 16.6409 21.3627C16.8685 21.59 16.9964 21.8981 16.9964 22.2195C16.9964 22.5408 16.8685 22.849 16.6409 23.0762C16.4134 23.3034 16.1047 23.431 15.7828 23.431H9.30719C8.98535 23.431 8.67669 23.3034 8.44911 23.0762C8.22153 22.849 8.09368 22.5408 8.09368 22.2195ZM8.09368 31.2745C8.09321 31.1151 8.12425 30.9571 8.18503 30.8097C8.2458 30.6623 8.33512 30.5283 8.44785 30.4155C8.56058 30.3026 8.69452 30.213 8.84198 30.1519C8.98944 30.0908 9.14753 30.0593 9.30719 30.0593H23.8552C24.0146 30.0593 24.1724 30.0907 24.3196 30.1516C24.4669 30.2125 24.6006 30.3017 24.7133 30.4142C24.826 30.5267 24.9154 30.6603 24.9764 30.8073C25.0374 30.9543 25.0688 31.1118 25.0688 31.2709C25.0688 31.43 25.0374 31.5876 24.9764 31.7346C24.9154 31.8816 24.826 32.0151 24.7133 32.1276C24.6006 32.2401 24.4669 32.3294 24.3196 32.3903C24.1724 32.4512 24.0146 32.4825 23.8552 32.4825H9.30719C8.98596 32.4825 8.67784 32.3553 8.45036 32.1289C8.22288 31.9024 8.09461 31.5952 8.09368 31.2745ZM8.09368 40.3224C8.09368 40.001 8.22153 39.6929 8.44911 39.4657C8.67669 39.2384 8.98535 39.1108 9.30719 39.1108H21.3217C21.6436 39.1108 21.9523 39.2384 22.1798 39.4657C22.4074 39.6929 22.5353 40.001 22.5353 40.3224C22.5353 40.6437 22.4074 40.9519 22.1798 41.1791C21.9523 41.4063 21.6436 41.534 21.3217 41.534H9.30719C8.98535 41.534 8.67669 41.4063 8.44911 41.1791C8.22153 40.9519 8.09368 40.6437 8.09368 40.3224ZM8.09368 49.3738C8.09367 49.0522 8.22141 48.7436 8.44889 48.5159C8.67637 48.2881 8.98502 48.1596 9.30719 48.1587H21.3217C21.4869 48.1498 21.6521 48.1746 21.8073 48.2315C21.9625 48.2885 22.1044 48.3764 22.2245 48.49C22.3445 48.6035 22.4401 48.7403 22.5055 48.8919C22.5708 49.0436 22.6045 49.207 22.6045 49.3721C22.6045 49.5372 22.5708 49.7005 22.5055 49.8522C22.4401 50.0038 22.3445 50.1406 22.2245 50.2542C22.1044 50.3677 21.9625 50.4557 21.8073 50.5126C21.6521 50.5696 21.4869 50.5943 21.3217 50.5854H9.30719C8.98535 50.5854 8.67669 50.4578 8.44911 50.2306C8.22153 50.0033 8.09368 49.6952 8.09368 49.3738ZM25.09 58.4217C25.0688 60.2746 22.2266 59.4845 20.6405 59.6369C20.3183 59.6359 20.0096 59.5075 19.7822 59.2797C19.5547 59.0519 19.4269 58.7434 19.427 58.4217C19.4482 56.5689 22.2869 57.359 23.873 57.2102C24.1951 57.2102 24.5042 57.3377 24.7323 57.5648C24.9605 57.7919 25.0891 58.1001 25.09 58.4217ZM8.09368 58.4217C8.09368 58.1004 8.22153 57.7922 8.44911 57.565C8.67669 57.3378 8.98535 57.2102 9.30719 57.2102H14.1648C14.4758 57.2269 14.7685 57.3621 14.9826 57.5878C15.1968 57.8135 15.3162 58.1126 15.3162 58.4235C15.3162 58.7344 15.1968 59.0335 14.9826 59.2592C14.7685 59.4849 14.4758 59.6201 14.1648 59.6369H9.30719C8.98502 59.6359 8.67637 59.5075 8.44889 59.2797C8.22141 59.0519 8.09367 58.7434 8.09368 58.4217ZM31.5799 67.4732C31.5799 67.7945 31.452 68.1027 31.2245 68.3299C30.9969 68.5571 30.6882 68.6848 30.3664 68.6848H9.30719C8.98535 68.6848 8.67669 68.5571 8.44911 68.3299C8.22153 68.1027 8.09368 67.7945 8.09368 67.4732C8.09368 67.1519 8.22153 66.8437 8.44911 66.6165C8.67669 66.3893 8.98535 66.2616 9.30719 66.2616H30.3522C30.5127 66.2598 30.6721 66.2897 30.8209 66.3497C30.9698 66.4098 31.1053 66.4987 31.2194 66.6114C31.3336 66.7241 31.4243 66.8583 31.4862 67.0063C31.548 67.1542 31.5799 67.3129 31.5799 67.4732Z" fill="#3D3D3D" stroke="#3D3D3D" stroke-width="0.4" mask="url(#path-1-inside-1_746_1661)"/>
</svg>
