<svg width="80" height="80" viewBox="0 0 80 80" fill="none" xmlns="http://www.w3.org/2000/svg">
<g clip-path="url(#clip0_746_1736)">
<path d="M53.0045 7.69467C44.9858 15.712 36.9712 23.7335 28.9554 31.7539C28.8094 31.8783 28.6928 32.0337 28.6142 32.2087L24.9363 40.472C24.4113 41.6516 24.7581 42.9681 25.548 43.758C26.338 44.548 27.6545 44.8947 28.8341 44.3697L37.0342 40.7171C37.2324 40.6405 37.3642 40.5445 37.5271 40.3758C45.5556 32.3447 53.5867 24.3186 61.6141 16.2913C63.1195 14.7858 63.1195 12.314 61.6141 10.8086L58.4999 7.69443C56.5448 5.83597 54.7483 6.10636 53.0045 7.69467ZM56.6647 9.51705L59.7789 12.6339C60.2952 13.1502 60.2952 13.9502 59.7789 14.4664L54.6248 19.6206L49.6805 14.6763L54.8397 9.51705C55.5738 8.94178 55.9471 8.89404 56.6647 9.51705ZM21.994 13.7891C19.865 13.7891 18.1139 15.5377 18.1139 17.6667V29.3145H3.8801C1.75108 29.3145 1.46568e-05 31.0733 0 33.2023V75.9063C1.46568e-05 78.0353 1.75108 79.7863 3.8801 79.7863H58.2395C60.3685 79.7863 62.1196 78.0353 62.1196 75.9063V64.2608H76.3534C78.4824 64.2608 80.2335 62.5021 80.2335 60.3732V17.6667C80.2335 15.5377 78.4824 13.7891 76.3534 13.7891H65.9972C65.2864 13.7919 64.7108 14.3673 64.708 15.0782C64.7054 15.7929 65.2824 16.3747 65.9972 16.3775H76.3534C77.0835 16.3775 77.6527 16.9365 77.6527 17.6667V21.5467H59.5312C58.8154 21.5482 58.2367 22.1303 58.2395 22.846C58.2421 23.5578 58.8194 24.1338 59.5312 24.1352H77.6527V60.3732C77.6527 61.1033 77.0835 61.6724 76.3534 61.6724C58.2282 61.653 40.1357 61.6724 21.994 61.6724C21.2639 61.6724 20.7048 61.1033 20.7048 60.3732V24.1352H32.3502C33.065 24.138 33.6467 23.5608 33.6495 22.846C33.6521 22.1273 33.0689 21.5439 32.3502 21.5467H20.7048V17.6667C20.7048 16.9365 21.2639 16.3775 21.994 16.3775H40.118C40.8328 16.3747 41.41 15.7929 41.4072 15.0782C41.4046 14.3673 40.8288 13.7919 40.118 13.7891H21.994ZM47.8555 16.5114L52.7947 21.4507L36.564 37.6739L31.6197 32.7397L47.8555 16.5114ZM24.5824 17.6667C23.8706 17.6694 23.2946 18.2465 23.2933 18.9583C23.2907 19.6731 23.8676 20.2548 24.5824 20.2576C25.3012 20.2605 25.8845 19.677 25.8817 18.9583C25.8804 18.2426 25.2982 17.6639 24.5824 17.6667ZM29.7593 17.6667C29.0475 17.6694 28.4715 18.2465 28.4701 18.9583C28.4675 19.6731 29.0445 20.2548 29.7593 20.2576C30.478 20.2605 31.0613 19.677 31.0585 18.9583C31.0572 18.2426 30.475 17.6639 29.7593 17.6667ZM34.9361 17.6667C34.2243 17.6694 33.6483 18.2465 33.6469 18.9583C33.6444 19.6731 34.2213 20.2548 34.9361 20.2576C35.6548 20.2605 36.2382 19.677 36.2354 18.9583C36.2341 18.2426 35.6519 17.6639 34.9361 17.6667ZM3.8801 31.903H18.1139V37.0798H2.58084V33.2023C2.58084 32.4721 3.14997 31.903 3.8801 31.903ZM6.46348 33.1972C5.75264 33.1999 5.17708 33.7755 5.17431 34.4864C5.17172 35.2011 5.74869 35.7829 6.46348 35.7856C7.1822 35.7885 7.76554 35.2051 7.76273 34.4864C7.76015 33.7716 7.17824 33.1944 6.46348 33.1972ZM11.6403 33.1972C10.9295 33.1999 10.3539 33.7755 10.3512 34.4864C10.3486 35.2011 10.9255 35.7829 11.6403 35.7856C12.359 35.7885 12.9424 35.2051 12.9396 34.4864C12.937 33.7716 12.3551 33.1944 11.6403 33.1972ZM51.7634 33.2011C50.3492 33.2011 49.175 34.3752 49.175 35.7894V38.3703C49.175 39.7845 50.3492 40.9588 51.7634 40.9588V51.315C50.3492 51.315 49.175 52.4893 49.175 53.9034V56.4918C49.175 57.906 50.3492 59.0828 51.7634 59.0828H54.3518C55.766 59.0828 56.9402 57.906 56.9402 56.4918H67.2964C67.2965 57.906 68.4732 59.0828 69.8874 59.0828H72.4758C73.89 59.0828 75.0642 57.906 75.0642 56.4918V53.9034C75.0642 52.4893 73.89 51.315 72.4758 51.315V40.9588C73.89 40.9588 75.0642 39.7845 75.0642 38.3703V35.7894C75.0642 34.3752 73.89 33.2011 72.4758 33.2011H69.8874C68.4732 33.2011 67.2965 34.3752 67.2964 35.7894H56.9402C56.9402 34.3752 55.766 33.2011 54.3518 33.2011H51.7634ZM30.2092 34.9781L34.3193 39.0856L27.7826 42.0003C27.5749 42.0928 27.4847 42.0353 27.3731 41.9245C27.2615 41.8129 27.2048 41.7304 27.2972 41.5224L30.2092 34.9781ZM51.7634 35.7894H54.3518V38.3703H51.7634V35.7894ZM69.8874 35.7894H72.4758V38.3714H69.8874V35.7894ZM56.9402 38.3714H67.2964C67.2965 39.7856 68.4732 40.9598 69.8874 40.9598V51.316C68.4732 51.316 67.2964 52.4902 67.2964 53.9044H56.9402C56.9402 52.4902 55.766 51.316 54.3518 51.316V40.9598C55.766 40.9598 56.9402 39.7856 56.9402 38.3714ZM2.58084 39.6706H18.1139V42.4967C17.7082 42.3513 17.2781 42.2592 16.8247 42.2592H9.05694C6.92798 42.2592 5.16926 44.0077 5.16926 46.1367V52.6153C5.16926 54.7443 6.92798 56.493 9.05694 56.493H16.8247C17.2781 56.493 17.7082 56.4009 18.1139 56.2555V60.3732C18.1139 62.5021 19.865 64.2609 21.994 64.2609H59.5312V75.9063C59.5312 76.6364 58.9696 77.198 58.2395 77.198H3.8801C3.14997 77.198 2.58084 76.6364 2.58084 75.9063V39.6706ZM62.1196 40.9598C59.2758 40.9598 56.9402 43.2928 56.9402 46.1366C56.9403 48.9803 59.2759 51.316 62.1196 51.316C64.9633 51.316 67.2964 48.9803 67.2964 46.1366C67.2965 43.2928 64.9634 40.9598 62.1196 40.9598ZM62.1196 43.5482C63.5645 43.5482 64.708 44.6917 64.708 46.1366C64.708 47.5814 63.5645 48.7276 62.1196 48.7276C60.6747 48.7276 59.5312 47.5814 59.5312 46.1366C59.5312 44.6917 60.6747 43.5482 62.1196 43.5482ZM9.05694 44.8475H16.8247C17.5548 44.8475 18.1139 45.4065 18.1139 46.1366V52.6153C18.1139 53.3454 17.5548 53.9044 16.8247 53.9044H9.05694C8.32687 53.9044 7.75768 53.3454 7.75768 52.6153V46.1366C7.75768 45.4065 8.32687 44.8475 9.05694 44.8475ZM32.3502 46.1366C31.6354 46.1394 31.0583 46.7211 31.0611 47.4359C31.0624 48.1477 31.6384 48.7248 32.3502 48.7276H42.7064C43.4182 48.7248 43.9942 48.1477 43.9956 47.4359C43.9982 46.7211 43.4212 46.1394 42.7064 46.1366H32.3502ZM24.5824 51.316C23.8676 51.3189 23.2905 51.9005 23.2933 52.6153C23.2959 53.3261 23.8716 53.9017 24.5824 53.9044H42.7064C43.4173 53.9017 43.9928 53.3261 43.9956 52.6153C43.9982 51.9005 43.4212 51.3188 42.7064 51.316H24.5824ZM51.7634 53.9044H54.3518V56.4929H51.7634V53.9044ZM69.8874 53.9044H72.4758V56.493H69.8874V53.9044ZM24.5824 56.493C23.8706 56.4957 23.2946 57.0728 23.2933 57.7847C23.2907 58.4994 23.8676 59.0812 24.5824 59.084H42.7064C43.4212 59.0812 43.9984 58.4994 43.9956 57.7847C43.9943 57.0728 43.4182 56.4958 42.7064 56.493H24.5824ZM10.3486 59.084C7.50487 59.084 5.16926 61.417 5.16926 64.2608V69.4402C5.16926 72.284 7.50487 74.6171 10.3486 74.6171C13.1924 74.6171 15.5255 72.284 15.5255 69.4402V64.2608C15.5255 61.417 13.1924 59.084 10.3486 59.084ZM10.3486 61.6724C11.7935 61.6724 12.9371 62.8159 12.9371 64.2608V69.4402C12.9371 70.8851 11.7935 72.0286 10.3486 72.0286C8.90374 72.0286 7.75768 70.8851 7.75768 69.4402V64.2608C7.75768 62.8159 8.90374 61.6724 10.3486 61.6724ZM42.7064 66.8493C41.9907 66.8464 41.4086 67.4252 41.4072 68.141C41.4046 68.8596 41.9877 69.443 42.7064 69.4402H43.9956C44.7143 69.4431 45.2977 68.8596 45.2948 68.141C45.2936 67.4252 44.7113 66.8465 43.9956 66.8493H42.7064ZM50.4742 66.8493C49.7585 66.8464 49.1764 67.4252 49.175 68.141C49.1724 68.8596 49.7555 69.443 50.4742 69.4402H51.7634C52.4821 69.4431 53.0655 68.8596 53.0627 68.141C53.0614 67.4252 52.4791 66.8465 51.7634 66.8493H50.4742ZM19.4132 72.0286C18.6984 72.0258 18.1167 72.6031 18.1139 73.3178C18.1113 74.0366 18.6944 74.6199 19.4132 74.6171H37.5271C38.2458 74.6199 38.8291 74.0366 38.8263 73.3178C38.8237 72.6031 38.2418 72.0258 37.5271 72.0286H19.4132ZM42.7064 72.0286C41.9917 72.0258 41.41 72.6031 41.4072 73.3178C41.4046 74.0366 41.9877 74.6199 42.7064 74.6171H45.2948C46.0096 74.6142 46.5868 74.0326 46.584 73.3178C46.5814 72.607 46.0057 72.0314 45.2948 72.0286H42.7064ZM50.4742 72.0286C49.7595 72.0258 49.1777 72.6031 49.175 73.3178C49.1724 74.0366 49.7555 74.6199 50.4742 74.6171H55.6511C56.3659 74.6142 56.943 74.0326 56.9402 73.3178C56.9376 72.607 56.3619 72.0314 55.6511 72.0286H50.4742Z" fill="#3D3D3D"/>
<rect y="2.40002" width="52" height="3.2" rx="1.6" fill="#3D3D3D"/>
</g>
<defs>
<clipPath id="clip0_746_1736">
<rect width="80" height="80" fill="white"/>
</clipPath>
</defs>
</svg>
