<svg width="81" height="81" viewBox="0 0 81 81" fill="none" xmlns="http://www.w3.org/2000/svg">
<path d="M70 8.33331H1.66666" stroke="#3D3D3D" stroke-width="2" stroke-linecap="round" stroke-linejoin="round"/>
<path d="M30.1677 30.104H36.8344" stroke="#3D3D3D" stroke-width="2" stroke-miterlimit="10"/>
<path d="M26.8344 30.104H15.1677" stroke="#3D3D3D" stroke-width="2" stroke-miterlimit="10"/>
<path d="M6.83439 36.7707H16.6667" stroke="#3D3D3D" stroke-width="2" stroke-miterlimit="10"/>
<path d="M20 36.7707H30" stroke="#3D3D3D" stroke-width="2" stroke-miterlimit="10"/>
<path d="M43.7717 45.4384L39.605 50.4384L43.7717 55.4384" stroke="#3D3D3D" stroke-width="4" stroke-linecap="round" stroke-linejoin="round"/>
<path d="M59.605 45.4384L63.7717 50.4384L59.605 55.4384" stroke="#3D3D3D" stroke-width="4" stroke-linecap="round" stroke-linejoin="round"/>
<path d="M50.0224 55.4393L53.3558 45.4393" stroke="#3D3D3D" stroke-width="4" stroke-linecap="round" stroke-linejoin="round"/>
<path d="M51.2724 69.6058C61.8579 69.6058 70.4391 61.0246 70.4391 50.4391C70.4391 39.8537 61.8579 31.2725 51.2724 31.2725C40.687 31.2725 32.1058 39.8537 32.1058 50.4391C32.1058 61.0246 40.687 69.6058 51.2724 69.6058Z" stroke="#3D3D3D" stroke-width="4" stroke-miterlimit="10"/>
<path d="M64.4792 64.4792L78.3783 78.3784" stroke="#3D3D3D" stroke-width="4" stroke-linecap="round" stroke-linejoin="round"/>
<path d="M30.1677 30.104H36.8344" stroke="#3D3D3D" stroke-width="2" stroke-miterlimit="10"/>
<path d="M26.8344 30.104H15.1677" stroke="#3D3D3D" stroke-width="2" stroke-miterlimit="10"/>
<path d="M6.83439 36.7707H16.6667" stroke="#3D3D3D" stroke-width="2" stroke-miterlimit="10"/>
<path d="M20 36.7707H30" stroke="#3D3D3D" stroke-width="2" stroke-miterlimit="10"/>
<path d="M6.83439 50H11.8344" stroke="#3D3D3D" stroke-width="2" stroke-miterlimit="10"/>
<path d="M15.1677 50H26.6667" stroke="#3D3D3D" stroke-width="2" stroke-miterlimit="10"/>
<path d="M26.8344 56.6667H15.1677" stroke="#3D3D3D" stroke-width="2" stroke-miterlimit="10"/>
<path d="M6.83439 63.3333H11.6667" stroke="#3D3D3D" stroke-width="2" stroke-miterlimit="10"/>
<path d="M15 63.3333H30" stroke="#3D3D3D" stroke-width="2" stroke-miterlimit="10"/>
<path d="M15 43.3333H26.6667" stroke="#3D3D3D" stroke-width="2" stroke-miterlimit="10"/>
<path d="M26.8344 70H15.1677" stroke="#3D3D3D" stroke-width="2" stroke-miterlimit="10"/>
<path d="M6.83439 16.6667H11.8344" stroke="#3D3D3D" stroke-width="2" stroke-miterlimit="10"/>
<path d="M15.1677 16.6667H46.6667" stroke="#3D3D3D" stroke-width="2" stroke-miterlimit="10"/>
<path d="M6.83439 16.6667H11.8344" stroke="#3D3D3D" stroke-width="2" stroke-miterlimit="10"/>
<path d="M15.1677 16.6667H46.6667" stroke="#3D3D3D" stroke-width="2" stroke-miterlimit="10"/>
<path d="M30.1677 23.3333H53.3333" stroke="#3D3D3D" stroke-width="2" stroke-miterlimit="10"/>
<path d="M26.8344 23.3333H15.1677" stroke="#3D3D3D" stroke-width="2" stroke-miterlimit="10"/>
<path d="M30.1677 23.3333H53.3333" stroke="#3D3D3D" stroke-width="2" stroke-miterlimit="10"/>
<path d="M26.8344 23.3333H15.1677" stroke="#3D3D3D" stroke-width="2" stroke-miterlimit="10"/>
<path d="M70 33.3334V3.66669C70 2.56212 69.1046 1.66669 68 1.66669H3.66666C2.56209 1.66669 1.66666 2.56212 1.66666 3.66669V76.3334C1.66666 77.4379 2.56209 78.3334 3.66666 78.3334H60" stroke="#3D3D3D" stroke-width="3" stroke-linecap="round" stroke-linejoin="round"/>
</svg>
