<svg width="80" height="80" viewBox="0 0 80 80" fill="none" xmlns="http://www.w3.org/2000/svg">
<g clip-path="url(#clip0_746_1740)">
<path d="M78.6201 73.846H62.0684C61.307 73.846 60.6891 73.1568 60.6891 72.3076V56.923C60.6891 56.0738 61.307 55.3845 62.0684 55.3845H78.6201C79.3815 55.3845 79.9994 56.0738 79.9994 56.923V72.3076C79.9994 73.1568 79.3815 73.846 78.6201 73.846ZM63.4477 70.7691H77.2408V58.4614H63.4477V70.7691Z" fill="#3D3D3D"/>
<path d="M48.2764 73.846H31.7246C30.9633 73.846 30.3453 73.1568 30.3453 72.3076V56.923C30.3453 56.0738 30.9633 55.3845 31.7246 55.3845H48.2764C49.0378 55.3845 49.6557 56.0738 49.6557 56.923V72.3076C49.6557 73.1568 49.0378 73.846 48.2764 73.846ZM33.104 70.7691H46.8971V58.4614H33.104V70.7691Z" fill="#3D3D3D"/>
<path d="M78.6201 79.9999H62.0684C61.307 79.9999 60.6891 79.3107 60.6891 78.4614C60.6891 77.6122 61.307 76.923 62.0684 76.923H78.6201C79.3815 76.923 79.9994 77.6122 79.9994 78.4614C79.9994 79.3107 79.3815 79.9999 78.6201 79.9999Z" fill="#3D3D3D"/>
<path d="M48.2764 79.9999H31.7246C30.9633 79.9999 30.3453 79.3107 30.3453 78.4614C30.3453 77.6122 30.9633 76.923 31.7246 76.923H48.2764C49.0378 76.923 49.6557 77.6122 49.6557 78.4614C49.6557 79.3107 49.0378 79.9999 48.2764 79.9999Z" fill="#3D3D3D"/>
<path d="M17.931 79.9999H1.37931C0.617931 79.9999 0 79.3107 0 78.4614C0 77.6122 0.617931 76.923 1.37931 76.923H17.931C18.6924 76.923 19.3103 77.6122 19.3103 78.4614C19.3103 79.3107 18.6924 79.9999 17.931 79.9999Z" fill="#3D3D3D"/>
<path d="M17.931 73.846H1.37931C0.617931 73.846 0 73.1568 0 72.3076V56.923C0 56.0738 0.617931 55.3845 1.37931 55.3845H17.931C18.6924 55.3845 19.3103 56.0738 19.3103 56.923V72.3076C19.3103 73.1568 18.6924 73.846 17.931 73.846ZM2.75862 70.7691H16.5517V58.4614H2.75862V70.7691Z" fill="#3D3D3D"/>
<path d="M70.3446 27.6921H9.65495C8.89357 27.6921 8.27563 27.0029 8.27563 26.1537V1.53834C8.27563 0.689107 8.89357 -0.00012207 9.65495 -0.00012207H70.3446C71.106 -0.00012207 71.7239 0.689107 71.7239 1.53834V26.1537C71.7239 27.0029 71.106 27.6921 70.3446 27.6921ZM11.0343 24.6152H68.9653V3.0768H11.0343V24.6152Z" fill="#3D3D3D"/>
<path d="M40.0004 36.923C39.239 36.923 38.6211 36.2338 38.6211 35.3846V26.1538C38.6211 25.3046 39.239 24.6154 40.0004 24.6154C40.7618 24.6154 41.3797 25.3046 41.3797 26.1538V35.3846C41.3797 36.2338 40.7618 36.923 40.0004 36.923Z" fill="#3D3D3D"/>
<path d="M40.0004 52.3077C39.239 52.3077 38.6211 51.6184 38.6211 50.7692V41.5385C38.6211 40.6892 39.239 40 40.0004 40C40.7618 40 41.3797 40.6892 41.3797 41.5385V50.7692C41.3797 51.6184 40.7618 52.3077 40.0004 52.3077Z" fill="#3D3D3D"/>
<path d="M70.3447 52.3077C69.5833 52.3077 68.9654 51.6184 68.9654 50.7692V43.0769H11.0344V50.7692C11.0344 51.6184 10.4164 52.3077 9.65507 52.3077C8.89369 52.3077 8.27576 51.6184 8.27576 50.7692V41.5385C8.27576 40.6892 8.89369 40 9.65507 40H70.3447C71.1061 40 71.724 40.6892 71.724 41.5385V50.7692C71.724 51.6184 71.1061 52.3077 70.3447 52.3077Z" fill="#3D3D3D"/>
<path d="M59.3109 18.4614H20.6902C19.9288 18.4614 19.3109 17.7722 19.3109 16.923C19.3109 16.0738 19.9288 15.3845 20.6902 15.3845H59.3109C60.0723 15.3845 60.6902 16.0738 60.6902 16.923C60.6902 17.7722 60.0723 18.4614 59.3109 18.4614Z" fill="#3D3D3D"/>
<path d="M59.3109 12.3077H20.6902C19.9288 12.3077 19.3109 11.6185 19.3109 10.7692C19.3109 9.92 19.9288 9.23077 20.6902 9.23077H59.3109C60.0723 9.23077 60.6902 9.92 60.6902 10.7692C60.6902 11.6185 60.0723 12.3077 59.3109 12.3077Z" fill="#3D3D3D"/>
</g>
<defs>
<clipPath id="clip0_746_1740">
<rect width="80" height="80" fill="white"/>
</clipPath>
</defs>
</svg>
