<svg width="20" height="20" viewBox="0 0 20 20" fill="none" xmlns="http://www.w3.org/2000/svg">
<g id="17364588111540882610 1" clip-path="url(#clip0_975_2639)">
<g id="Download">
<path id="Vector" d="M19.375 13.75C19.03 13.75 18.75 14.03 18.75 14.375V18.75H1.25V14.375C1.25 14.03 0.97 13.75 0.625 13.75C0.28 13.75 0 14.03 0 14.375V19.375C0 19.72 0.28 20 0.625 20H19.375C19.72 20 20 19.72 20 19.375V14.375C20 14.03 19.72 13.75 19.375 13.75Z" fill="#006EE9"/>
<path id="Vector_2" d="M9.54377 14.8169C9.78689 15.0575 10.1938 15.06 10.4369 14.8169L14.8113 10.5044C15.0581 10.26 15.0575 9.86438 14.8113 9.62062C14.565 9.37625 14.165 9.37625 13.9188 9.62062L10.6219 12.8706V0.625C10.6219 0.28 10.3394 0 9.99064 0C9.64189 0 9.35939 0.28 9.35939 0.625V12.8706L6.06252 9.62062C5.81564 9.37625 5.41627 9.37625 5.17002 9.62062C4.92314 9.865 4.92314 10.2606 5.17002 10.5044L9.54377 14.8169Z" fill="#006EE9"/>
</g>
</g>
<defs>
<clipPath id="clip0_975_2639">
<rect width="20" height="20" fill="white"/>
</clipPath>
</defs>
</svg>
