<svg width="73" height="24" viewBox="0 0 73 24" xmlns="http://www.w3.org/2000/svg">
<g id="Frame 1911">
<g id="ibs.ru">
<path d="M0.745005 20.7316V6.51037H5.27247V20.7316H0.745005ZM3.01337 4.85308C2.37761 4.85308 1.83135 4.64321 1.37459 4.22349C0.917833 3.79759 0.689453 3.28528 0.689453 2.68656C0.689453 2.094 0.917833 1.58787 1.37459 1.16814C1.83135 0.742246 2.37761 0.529297 3.01337 0.529297C3.6553 0.529297 4.20156 0.742246 4.65215 1.16814C5.1089 1.58787 5.33728 2.094 5.33728 2.68656C5.33728 3.28528 5.1089 3.79759 4.65215 4.22349C4.20156 4.64321 3.6553 4.85308 3.01337 4.85308Z"/>
<path d="M8.15422 20.7316V1.76995H12.6817V8.94539H12.7743C12.9594 8.51332 13.2218 8.09668 13.5613 7.69547C13.9069 7.29427 14.3452 6.96713 14.876 6.71406C15.413 6.45482 16.0549 6.3252 16.8018 6.3252C17.7894 6.3252 18.7121 6.58444 19.5701 7.10292C20.4342 7.6214 21.1317 8.42073 21.6626 9.50091C22.1934 10.5811 22.4588 11.9575 22.4588 13.6303C22.4588 15.2413 22.2026 16.5899 21.6903 17.6763C21.1842 18.7626 20.4991 19.5774 19.6349 20.1205C18.7769 20.6637 17.8233 20.9353 16.774 20.9353C16.058 20.9353 15.4377 20.818 14.913 20.5835C14.3884 20.3489 13.947 20.0403 13.589 19.6576C13.2372 19.2749 12.9656 18.8645 12.7743 18.4262H12.6354V20.7316H8.15422ZM12.5891 13.621C12.5891 14.3864 12.6909 15.053 12.8946 15.6209C13.1045 16.1887 13.4039 16.63 13.7927 16.9448C14.1878 17.2535 14.6599 17.4078 15.2093 17.4078C15.7648 17.4078 16.237 17.2535 16.6259 16.9448C17.0147 16.63 17.3079 16.1887 17.5054 15.6209C17.7091 15.053 17.811 14.3864 17.811 13.621C17.811 12.8556 17.7091 12.1921 17.5054 11.6304C17.3079 11.0687 17.0147 10.6335 16.6259 10.3249C16.2432 10.0163 15.771 9.86199 15.2093 9.86199C14.6538 9.86199 14.1816 10.0132 13.7927 10.3157C13.4039 10.6181 13.1045 11.0502 12.8946 11.6119C12.6909 12.1736 12.5891 12.8433 12.5891 13.621Z"/>
<path d="M37.2471 10.8527L33.09 10.9638C33.0468 10.6675 32.9295 10.4052 32.7382 10.1768C32.5468 9.94223 32.2969 9.76015 31.9882 9.63053C31.6858 9.49473 31.334 9.42684 30.9328 9.42684C30.4081 9.42684 29.9606 9.53177 29.5903 9.74163C29.2261 9.95149 29.0471 10.2354 29.0533 10.5934C29.0471 10.8712 29.1582 11.1119 29.3866 11.3156C29.6211 11.5193 30.0378 11.6829 30.6365 11.8063L33.377 12.3248C34.7967 12.5964 35.8522 13.047 36.5435 13.6765C37.241 14.3061 37.5928 15.1394 37.599 16.1764C37.5928 17.1516 37.3027 18.0003 36.7287 18.7225C36.1608 19.4447 35.3831 20.0064 34.3955 20.4076C33.4079 20.8026 32.2783 21.0001 31.0068 21.0001C28.9761 21.0001 27.3744 20.5835 26.2016 19.7502C25.035 18.9108 24.3684 17.7874 24.2017 16.3801L28.6737 16.269C28.7724 16.7874 29.0286 17.1825 29.4421 17.4541C29.8557 17.7257 30.3834 17.8614 31.0253 17.8614C31.6056 17.8614 32.0777 17.7534 32.4419 17.5374C32.8061 17.3214 32.9913 17.0343 32.9974 16.6763C32.9913 16.3554 32.8493 16.0992 32.5715 15.9079C32.2938 15.7104 31.8586 15.556 31.2661 15.4449L28.7848 14.9728C27.3589 14.7135 26.2973 14.2351 25.5998 13.5377C24.9023 12.834 24.5566 11.939 24.5628 10.8527C24.5566 9.90211 24.8097 9.09044 25.322 8.41765C25.8343 7.73868 26.5627 7.2202 27.5071 6.8622C28.4514 6.5042 29.5656 6.3252 30.8494 6.3252C32.7752 6.3252 34.2936 6.72949 35.4047 7.53808C36.5157 8.34049 37.1299 9.44535 37.2471 10.8527Z"/>
<path d="M41.6241 21.0001C40.9575 21.0001 40.3865 20.7656 39.9113 20.2965C39.4422 19.8274 39.2107 19.2595 39.2169 18.5929C39.2107 17.9386 39.4422 17.38 39.9113 16.9171C40.3865 16.448 40.9575 16.2134 41.6241 16.2134C42.2537 16.2134 42.8092 16.448 43.2907 16.9171C43.7783 17.38 44.0252 17.9386 44.0313 18.5929C44.0252 19.0373 43.9079 19.4416 43.6795 19.8058C43.4573 20.1699 43.1641 20.46 42.7999 20.6761C42.4419 20.8921 42.05 21.0001 41.6241 21.0001Z"/>
<path d="M46.2719 20.7316V6.51037H50.6697V9.10278H50.8179C51.0771 8.16458 51.4999 7.46709 52.0863 7.01033C52.6727 6.5474 53.3547 6.31594 54.1325 6.31594C54.3423 6.31594 54.5583 6.33137 54.7806 6.36223C55.0028 6.38692 55.2095 6.42704 55.4009 6.48259V10.4175C55.1849 10.3434 54.9009 10.2848 54.5491 10.2416C54.2034 10.1984 53.8948 10.1768 53.6232 10.1768C53.0862 10.1768 52.6017 10.2971 52.1696 10.5379C51.7437 10.7724 51.4073 11.1026 51.1604 11.5285C50.9197 11.9483 50.7993 12.4421 50.7993 13.0099V20.7316H46.2719Z"/>
<path d="M66.421 14.5931V6.51037H70.9392V20.7316H66.6246V18.0837H66.4765C66.1617 18.954 65.6247 19.6453 64.8655 20.1576C64.1125 20.6637 63.2021 20.9168 62.1342 20.9168C61.1652 20.9168 60.3134 20.6946 59.5788 20.2502C58.8443 19.8058 58.2734 19.1854 57.866 18.3892C57.4586 17.5868 57.2518 16.6486 57.2457 15.5746V6.51037H61.7731V14.6857C61.7793 15.4573 61.983 16.0653 62.3842 16.5097C62.7854 16.9541 63.3317 17.1763 64.023 17.1763C64.4736 17.1763 64.8779 17.0775 65.2359 16.88C65.6 16.6763 65.887 16.3832 66.0969 16.0005C66.313 15.6116 66.421 15.1425 66.421 14.5931Z"/>
</g>
</g>
</svg>
