<svg width="80" height="80" viewBox="0 0 80 80" fill="none" xmlns="http://www.w3.org/2000/svg">
<g clip-path="url(#clip0_746_1771)">
<path d="M70 8.33331H1.66669" stroke="#3D3D3D" stroke-width="2" stroke-linecap="round" stroke-linejoin="round"/>
<path d="M30.1677 30.104H36.8344" stroke="#3D3D3D" stroke-width="2" stroke-miterlimit="10"/>
<path d="M26.8344 30.104H15.1677" stroke="#3D3D3D" stroke-width="2" stroke-miterlimit="10"/>
<path d="M6.83441 36.7707H16.6667" stroke="#3D3D3D" stroke-width="2" stroke-miterlimit="10"/>
<path d="M20 36.7707H30" stroke="#3D3D3D" stroke-width="2" stroke-miterlimit="10"/>
<path d="M51.2724 69.6058C61.8579 69.6058 70.4391 61.0246 70.4391 50.4391C70.4391 39.8537 61.8579 31.2725 51.2724 31.2725C40.687 31.2725 32.1058 39.8537 32.1058 50.4391C32.1058 61.0246 40.687 69.6058 51.2724 69.6058Z" stroke="#3D3D3D" stroke-width="4" stroke-miterlimit="10"/>
<path d="M64.4792 64.4792L78.3783 78.3784" stroke="#3D3D3D" stroke-width="4" stroke-linecap="round" stroke-linejoin="round"/>
<path d="M30.1677 30.104H36.8344" stroke="#3D3D3D" stroke-width="2" stroke-miterlimit="10"/>
<path d="M26.8344 30.104H15.1677" stroke="#3D3D3D" stroke-width="2" stroke-miterlimit="10"/>
<path d="M6.83441 36.7707H16.6667" stroke="#3D3D3D" stroke-width="2" stroke-miterlimit="10"/>
<path d="M20 36.7707H30" stroke="#3D3D3D" stroke-width="2" stroke-miterlimit="10"/>
<path d="M6.83441 50H11.8344" stroke="#3D3D3D" stroke-width="2" stroke-miterlimit="10"/>
<path d="M15.1677 50H26.6667" stroke="#3D3D3D" stroke-width="2" stroke-miterlimit="10"/>
<path d="M26.8344 56.6667H15.1677" stroke="#3D3D3D" stroke-width="2" stroke-miterlimit="10"/>
<path d="M6.83441 63.3333H11.6667" stroke="#3D3D3D" stroke-width="2" stroke-miterlimit="10"/>
<path d="M15 63.3333H30" stroke="#3D3D3D" stroke-width="2" stroke-miterlimit="10"/>
<path d="M15 43.3333H26.6667" stroke="#3D3D3D" stroke-width="2" stroke-miterlimit="10"/>
<path d="M26.8344 70H15.1677" stroke="#3D3D3D" stroke-width="2" stroke-miterlimit="10"/>
<path d="M6.83441 16.6667H11.8344" stroke="#3D3D3D" stroke-width="2" stroke-miterlimit="10"/>
<path d="M15.1677 16.6667H46.6667" stroke="#3D3D3D" stroke-width="2" stroke-miterlimit="10"/>
<path d="M6.83441 16.6667H11.8344" stroke="#3D3D3D" stroke-width="2" stroke-miterlimit="10"/>
<path d="M15.1677 16.6667H46.6667" stroke="#3D3D3D" stroke-width="2" stroke-miterlimit="10"/>
<path d="M30.1677 23.3333H53.3333" stroke="#3D3D3D" stroke-width="2" stroke-miterlimit="10"/>
<path d="M26.8344 23.3333H15.1677" stroke="#3D3D3D" stroke-width="2" stroke-miterlimit="10"/>
<path d="M30.1677 23.3333H53.3333" stroke="#3D3D3D" stroke-width="2" stroke-miterlimit="10"/>
<path d="M26.8344 23.3333H15.1677" stroke="#3D3D3D" stroke-width="2" stroke-miterlimit="10"/>
<path d="M70 33.3334V5.16669C70 3.23369 68.433 1.66669 66.5 1.66669H5.16669C3.23369 1.66669 1.66669 3.23369 1.66669 5.16669V74.8334C1.66669 76.7664 3.23369 78.3334 5.16669 78.3334H60" stroke="#3D3D3D" stroke-width="4" stroke-linecap="round" stroke-linejoin="round"/>
<path d="M41.6 49.8769L48.7111 56.8L60.8 44.8" stroke="#3D3D3D" stroke-width="4" stroke-miterlimit="10"/>
</g>
<defs>
<clipPath id="clip0_746_1771">
<rect width="80" height="80" fill="white"/>
</clipPath>
</defs>
</svg>
