<svg width="80" height="80" viewBox="0 0 80 80" fill="none" xmlns="http://www.w3.org/2000/svg">
<g clip-path="url(#clip0_746_1764)">
<path d="M67.8265 0H12.1744C9.73958 0 7.82654 1.91304 7.82654 4.34783V62.6087C7.82654 65.0435 9.73958 66.9565 12.1744 66.9565H33.9135V77.3913C33.9135 78.8696 35.0439 80 36.5222 80H43.4787C44.957 80 46.0874 78.8696 46.0874 77.3913V66.9565H67.8265C70.2613 66.9565 72.1744 65.0435 72.1744 62.6087V4.34783C72.1744 1.91304 70.2613 0 67.8265 0ZM44.3483 77.3913C44.3483 77.913 44.0005 78.2609 43.4787 78.2609H36.5222C36.0005 78.2609 35.6526 77.913 35.6526 77.3913V60.8696C35.6526 60.3478 36.0005 60 36.5222 60H43.4787C44.0005 60 44.3483 60.3478 44.3483 60.8696V77.3913ZM59.3048 23.8261L58.2613 21.913L65.6526 22.6957L62.6091 29.6522L61.7396 28.087C61.6526 27.913 61.3918 27.7391 61.2178 27.6522C60.957 27.5652 60.7831 27.6522 60.5222 27.7391L54.0005 31.8261L39.1309 41.3043L34.4352 34.087C34.3483 33.913 34.0874 33.7391 33.9135 33.7391C33.6526 33.6522 33.4787 33.7391 33.2178 33.913L26.4352 38.6087C26.1744 37.5652 26.0874 36.6087 26.0874 35.6522C26.0874 35.3913 26.0874 35.1304 26.0874 34.8696L35.1309 28.7826L39.8265 36C40.0874 36.4348 40.6091 36.5217 41.0439 36.2609L53.0439 28.6957L58.957 24.9565C59.3918 24.6957 59.5657 24.1739 59.3048 23.8261ZM53.9135 35.6522C53.9135 43.3043 47.6526 49.5652 40.0005 49.5652C34.0874 49.5652 28.87 45.913 26.87 40.3478L33.3918 35.8261L38.0874 43.0435C38.2613 43.3043 38.5222 43.4783 38.7831 43.4783C38.957 43.4783 39.1309 43.4783 39.2178 43.3043L53.7396 34.087C53.9135 34.6087 53.9135 35.1304 53.9135 35.6522ZM26.4352 32.4348C27.9135 26.2609 33.4787 21.7391 40.0005 21.7391C44.6091 21.7391 48.7831 23.913 51.3918 27.7391L40.87 34.2609L36.1744 27.0435C36.0874 26.8696 35.8265 26.6957 35.6526 26.6957C35.3918 26.6087 35.2178 26.6957 34.957 26.7826L26.4352 32.4348ZM52.87 26.6957C50.0005 22.4348 45.2178 20 40.0005 20C31.9135 20 25.1309 26.2609 24.4352 34.2609C24.3483 34.6087 24.3483 35.1304 24.3483 35.6522C24.3483 37.2174 24.6091 38.7826 25.0439 40.2609C27.0439 46.7826 33.0439 51.3043 40.0005 51.3043C48.6091 51.3043 55.6526 44.2609 55.6526 35.6522C55.6526 34.7826 55.5657 34 55.3918 33.1304L57.7396 31.6522C58.0005 32.9565 58.1744 34.3478 58.1744 35.7391C58.1744 45.8261 50.0005 54 39.9135 54C32.4352 54 25.5657 49.3043 22.87 42.2609C22.2613 40.6087 21.8265 38.9565 21.7396 37.2174C21.7396 36.6087 21.7396 36.087 21.7396 35.6522C21.7396 25.5652 29.9135 17.3913 40.0005 17.3913C46.0874 17.3913 51.6526 20.3478 55.1309 25.3913L52.87 26.6957ZM42.6091 55.4783V58.2609H37.3918V55.4783C38.2613 55.5652 39.1309 55.6522 40.0005 55.6522C40.87 55.6522 41.7396 55.5652 42.6091 55.4783ZM70.4352 62.6087C70.4352 64.087 69.3048 65.2174 67.8265 65.2174H46.0874V60.8696C46.0874 59.7391 45.3918 58.7826 44.3483 58.4348V55.2174C53.3048 53.2174 60.0005 45.2174 60.0005 35.6522C60.0005 33.913 59.7396 32.2609 59.3048 30.6087L60.6091 29.7391L61.8265 32C62.0004 32.2609 62.2613 32.4348 62.6091 32.4348C62.957 32.4348 63.2178 32.2609 63.3918 31.913L67.6526 22.2609C67.7396 22 67.7396 21.7391 67.5657 21.4783C67.3918 21.2174 67.2178 21.0435 66.87 21.0435L56.7831 20C56.4352 20 56.1744 20.087 56.0005 20.3478C55.8265 20.6087 55.8265 20.9565 56.0005 21.2174L57.4787 23.8261L56.6961 24.3478C52.87 18.8696 46.6961 15.6522 40.0005 15.6522C28.957 15.6522 20.0005 24.6087 20.0005 35.6522C20.0005 36 20.0005 36.4348 20.0005 36.7826L12.5222 41.8261C12.1744 42.087 12.0005 42.6087 12.2613 42.9565L14.87 47.3913C14.957 47.5652 15.2178 47.7391 15.3918 47.8261C15.4787 47.8261 15.4787 47.8261 15.5657 47.8261C15.7396 47.8261 15.9135 47.7391 16.0874 47.6522L21.7396 43.8261C24.3483 49.5652 29.5657 53.8261 35.6526 55.1304V58.4348C34.6091 58.7826 33.9135 59.7391 33.9135 60.8696V65.2174H12.1744C10.6961 65.2174 9.56567 64.087 9.56567 62.6087V12.1739H70.4352V62.6087ZM21.1309 42.1739L15.9135 45.7391L14.1744 42.7826L20.1744 38.6957C20.4352 39.913 20.6961 41.0435 21.1309 42.1739ZM70.4352 10.4348H9.56567V4.34783C9.56567 2.86957 10.6961 1.73913 12.1744 1.73913H67.8265C69.3048 1.73913 70.4352 2.86957 70.4352 4.34783V10.4348Z" fill="#3D3D3D" stroke="#3D3D3D"/>
<path d="M65.2175 7.82598C66.178 7.82598 66.9567 7.04734 66.9567 6.08685C66.9567 5.12635 66.178 4.34772 65.2175 4.34772C64.257 4.34772 63.4784 5.12635 63.4784 6.08685C63.4784 7.04734 64.257 7.82598 65.2175 7.82598Z" fill="#3D3D3D"/>
<path d="M60.001 7.82598C60.9615 7.82598 61.7401 7.04734 61.7401 6.08685C61.7401 5.12635 60.9615 4.34772 60.001 4.34772C59.0405 4.34772 58.2618 5.12635 58.2618 6.08685C58.2618 7.04734 59.0405 7.82598 60.001 7.82598Z" fill="#3D3D3D"/>
<path d="M54.783 7.82598C55.7434 7.82598 56.5221 7.04734 56.5221 6.08685C56.5221 5.12635 55.7434 4.34772 54.783 4.34772C53.8225 4.34772 53.0438 5.12635 53.0438 6.08685C53.0438 7.04734 53.8225 7.82598 54.783 7.82598Z" fill="#3D3D3D"/>
</g>
<defs>
<clipPath id="clip0_746_1764">
<rect width="80" height="80" fill="white"/>
</clipPath>
</defs>
</svg>
