<svg width="24" height="24" viewBox="0 0 24 24" xmlns="http://www.w3.org/2000/svg">
<g id="akar-icons:vk-fill" clip-path="url(#clip0_755_1938)">
<path id="Vector" fill-rule="evenodd" clip-rule="evenodd" d="M23.45 7.948C23.616 7.402 23.45 7 22.655 7H20.03C19.362 7 19.054 7.347 18.887 7.73C18.887 7.73 17.552 10.926 15.661 13.002C15.049 13.604 14.771 13.795 14.437 13.795C14.27 13.795 14.019 13.604 14.019 13.057V7.948C14.019 7.292 13.835 7 13.279 7H9.151C8.734 7 8.483 7.304 8.483 7.593C8.483 8.214 9.429 8.358 9.526 10.106V13.904C9.526 14.737 9.373 14.888 9.039 14.888C8.149 14.888 5.984 11.677 4.699 8.003C4.45 7.288 4.198 7 3.527 7H0.9C0.15 7 0 7.347 0 7.73C0 8.412 0.89 11.8 4.145 16.281C6.315 19.341 9.37 21 12.153 21C13.822 21 14.028 20.632 14.028 19.997V17.684C14.028 16.947 14.186 16.8 14.715 16.8C15.105 16.8 15.772 16.992 17.33 18.467C19.11 20.216 19.403 21 20.405 21H23.03C23.78 21 24.156 20.632 23.94 19.904C23.702 19.18 22.852 18.129 21.725 16.882C21.113 16.172 20.195 15.407 19.916 15.024C19.527 14.533 19.638 14.314 19.916 13.877C19.916 13.877 23.116 9.451 23.449 7.948H23.45Z"/>
</g>
<defs>
<clipPath id="clip0_755_1938">
<rect width="24" height="24"/>
</clipPath>
</defs>
</svg>
